<svg width="428" height="247" viewBox="0 0 428 247" fill="none" xmlns="http://www.w3.org/2000/svg">
<path d="M0 63.6086V154.233V188H112V74.3984H106.667V70.5691H100.572V36.1057H97.5239V70.5691H89.143V55.252H85.3335V50.1463H82.2859V55.252H77.7145V74.3984H74.6669V68.0163H70.0955V32.2764H65.5241V36.1057H63.2384V68.0163H59.4289V47.5935H57.9051V42.4878H50.2861V47.5935H48.0004V79.5041H34.2862V31L23.6196 39.935V50.1463H14.4725V63.6086H0Z" fill="#A6A6A6"/>
<path d="M123 82.9976V159.497V188H220V126.585V94.2606H217.342V64.0916L208.705 71.6338L200.733 78.0986L195.418 82.4085V94.2606H192.096V75.9437V70.5563H186.781V66.2465H184.124V60.8592H180.801V57.6268H177.479V53.3169H174.822V66.2465H170.171V69.4789H165.521V72.7113H161.534V79.1761H158.877V53.3169H157.548V79.1761H154.89V55.4718H152.233V53.3169H146.918V78.0986H144.26V60.8592H140.274V64.0916H136.288V49.007H133.63V44.6972H131.637V35H129.644V44.6972H127.651V50.0845H123V55.4718V82.9976Z" fill="#A6A6A6"/>
<path d="M231 87.7405V160.784V188H338V129.325V80.2293V59.8726V39.5159H335.622V57.4777H332.452V74.242H327.696V44.3057H325.319V52.6879H322.941V22.7516H316.6V0H313.43V19.1592H308.674V52.6879L305.504 44.3057H300.748V63.465H297.578H284.896V70.6497H283.311V44.3057L278.556 40.7134V26.3439H276.178V8.38216H273.8V26.3439H270.63V46.7006H267.459V84.0915H262.704V53.8853H256.363V31.1338H253.985V26.3439H251.607V16.7643H248.437V2.3949H245.267V16.7643H242.096V29.9363H238.926V41.9108H236.548V56.314H231V61.458V87.7405Z" fill="#A6A6A6"/>
<path d="M338 49.8776V154.168V188H428V57.551L422.5 51.5V57.551H418.5V39.5H411V57.551H405.5V69.0612V81.8503H395.5V40.9252H393V35.8095H386.125V40.9252H384.25V69.0612H383V43.483H379.875V17.9048H378.625V5.11565H377.375V0H376.125V5.11565H374.875V17.9048H373V43.483H369.25V69.0612H365.5V92.0816H361.75V56.2721H353.625V33.2517H351.75V24.2993H349.25V7.67347H346.75V24.2993H344.875V33.2517H343.625V38.3673H341.125V49.8776H338Z" fill="#A6A6A6"/>
<path d="M9.29591 78.5547H0V188H427.5V118.759H417.056V170.888H408.172V94.1898H383.479V170.888H374.761V87.3421L335.994 125.592V170.888H327.763L328.047 37.2336H302V170.888H295.473V67.3869H287.243V97.5401H278.177V170.888H263.183V72.9708H260.651V67.3869H252.42V72.9708H249.888V172.365H239.124V94.1898H218.838V172.365H206.844V90.8394H178.343V172.365H170.746V105.358L158.083 88.6058V109.825V172.365H155.55V80.7883H153.651V77.438H151.751V72.9708H141.621V77.438H137.189V80.7883H134.024V172.365H127.692V108.708H115.03V56.219H109.964V35H96.6686V60.6861H91.6035V172.365H88V106.467H59.1268V172.365H51.0828V155.613H39.6864V93.073H25.7575V120.993H13.7279V137.745H9.29591V78.5547Z" fill="#5C5C5C"/>
<path d="M45.7741 197.03C28.4832 194.594 7.68484 198.963 0 201.5V221C28.578 220.323 91.4508 218.851 92.6036 218.851C94.0445 218.851 189.144 216.821 202.113 216.821C212.487 216.821 342.361 224.94 406.001 229L428 223V200.075C427.039 200.075 418.393 199.669 413.205 200.075C406.721 200.582 406.721 198.552 400.958 197.537C390.871 196.522 374.301 196.015 367.096 198.552C361.333 200.582 354.128 200.413 351.246 200.075C341.64 198.891 321.131 196.624 315.944 197.03C310.757 197.436 300.815 200.244 296.492 201.597H278.481L210.758 195C204.514 196.184 190.585 198.857 184.822 200.075C179.058 201.293 175.216 200.582 174.015 200.075C169.932 199.06 158.453 197.03 145.197 197.03C128.626 197.03 122.863 201.597 117.099 200.075C105.572 197.537 89.7217 195 72.4309 198.552C55.14 202.104 55.14 198.552 45.7741 197.03Z" fill="#95D397"/>
<path d="M138.201 244.547C143.467 248.99 191.465 246.398 214.805 244.547C251.911 247.015 297.395 245.781 297.993 242.696C298.472 240.228 272.658 238.789 259.691 238.377C254.903 239.406 239.463 241.339 216.002 240.845L214.808 240.82C185.21 240.196 131.706 239.069 138.201 244.547Z" fill="#08B260"/>
<path d="M154.727 180.38C153.29 180.38 146.348 173.593 145.151 168.657L157.352 169.274C157.352 172.77 156.163 180.38 154.727 180.38Z" fill="#F80B0B"/>
<path d="M288.785 200.123C278.611 198.272 263.88 201.357 263.282 201.357L260.29 193.336C260.489 191.28 262.324 187.167 268.07 187.167C273.815 187.167 280.438 189.223 283.032 190.251C288.617 193.748 296.924 201.604 288.785 200.123Z" fill="#06C167"/>
<path d="M244.131 191.486C244.609 188.524 243.931 179.968 243.532 176.061L242.335 161.87L254.903 156.934L272.857 172.359C275.251 173.798 279.919 177.541 279.441 180.997C278.962 185.933 277.246 185.933 276.448 185.316C272.857 186.138 265.556 187.907 265.077 188.401C264.479 189.018 259.691 196.421 259.691 199.506C259.691 202.591 260.29 205.059 259.691 211.229C259.093 217.399 255.502 212.463 254.903 211.846C254.305 211.229 243.532 195.187 244.131 191.486Z" fill="#06C167"/>
<path d="M153.761 175.444V166.806C157.152 165.777 165.252 164.955 170.518 169.891C177.102 176.061 187.874 173.593 199.844 179.146C209.419 183.588 208.621 182.231 207.025 180.997C210.217 182.436 217.319 186.179 220.192 189.635C223.783 193.954 220.79 195.188 220.192 201.975C219.593 208.761 216.601 224.186 207.025 222.952C197.45 221.718 180.094 203.826 180.094 201.975C180.094 200.124 173.511 186.55 172.912 185.316C172.433 184.328 159.945 178.323 153.761 175.444Z" fill="#06C167"/>
<path d="M195.056 164.338C187.395 164.831 181.889 161.664 180.094 160.019C178.298 156.934 185.48 150.147 186.677 148.913C187.635 147.926 188.273 146.033 188.472 145.211C188.472 144.182 189.789 140.398 195.056 133.488C201.759 123.122 211.813 119.297 216.002 118.68V118.063L218.396 115.595C221.189 117.446 226.895 121.518 227.373 122.999C228.81 128.922 227.972 129.58 227.373 129.169L224.979 127.318C225.179 130.403 224.74 137.437 221.389 140.892C218.037 144.347 208.821 157.139 204.631 163.104C204.631 163.309 202.716 163.844 195.056 164.338Z" fill="#4FAE59"/>
<path d="M218.893 121.605L214.337 126.302L212.924 124.846L217.708 119.914L218.893 121.605Z" fill="white"/>
<path d="M207.025 156.934L207.624 154.466L226.176 160.019C225.977 160.636 225.219 161.87 223.783 161.87C221.389 161.87 211.614 158.579 207.025 156.934Z" fill="#377F4F"/>
<path d="M212.84 141.545C210.891 141.879 206.202 140.2 203.76 139.179C203.588 139.107 203.395 139.205 203.351 139.386L202.906 141.221C202.867 141.381 202.964 141.542 203.122 141.583L212.202 143.923C212.327 143.955 212.459 143.904 212.525 143.793C212.886 143.185 213.349 142.171 213.108 141.652C213.062 141.554 212.946 141.527 212.84 141.545Z" fill="#C4C4C4"/>
<path d="M250.714 171.124C255.98 172.112 260.489 176.472 262.085 178.528H243.532L241.138 173.593C239.343 169.891 235.393 161.87 233.957 159.402C232.52 156.934 234.954 154.26 236.35 153.232C237.747 151.792 240.899 148.666 242.335 147.679C243.772 146.692 242.535 145.211 241.737 144.594C241.737 144.182 241.497 143.853 240.54 145.828C239.582 147.802 238.146 146.65 237.547 145.828L236.949 140.892C236.749 139.658 237.069 137.436 239.941 138.424C242.814 139.411 245.128 144.594 245.926 147.062C249.716 149.118 257.177 153.972 256.699 156.934C256.1 160.636 249.517 161.253 246.524 161.253C242.335 164.338 244.131 169.89 250.714 171.124Z" fill="black"/>
<path d="M183.454 223.569L186.446 213.08C187.643 212.052 180.461 207.404 173.28 204.442C170.845 203.438 169.698 203.139 169.214 203.125L169.321 203.208C169.849 204.16 168.271 203.099 169.214 203.125L164.534 199.506C165.531 196.627 167.646 190.375 168.124 188.401C165.132 187.784 163.337 186.55 160.943 184.699C159.028 183.218 154.958 184.493 153.163 185.316C148.774 189.84 139.398 199.26 137.004 200.74C134.61 202.221 134.809 200.123 135.208 198.889L145.981 184.082C147.776 181.614 146.579 181.614 144.784 180.38C143.348 179.392 144.186 178.323 144.784 177.912H153.761V173.593L156.754 174.21C164.135 178.117 179.376 186.303 181.291 187.784C183.206 189.264 184.084 190.457 184.283 190.869L188.473 203.208C190.867 203.825 196.492 205.306 199.844 206.293C203.195 207.281 202.437 205.471 201.639 204.442L198.048 200.123C196.053 197.655 192.782 192.843 195.654 193.336C204.033 193.953 210.616 193.953 207.624 189.018C205.23 185.069 184.283 176.678 174.109 172.976L145.382 168.657L140.595 156.934L169.321 162.487L195.056 167.423L230.366 184.082V213.697L235.752 216.782L244.729 189.635C245.527 191.074 247.841 195.064 250.714 199.506C254.305 205.059 257.896 204.442 257.297 201.357C255.382 199.877 256.1 196.216 256.699 194.57C257.696 192.925 260.409 188.771 263.282 185.315C266.155 181.86 274.454 183.876 278.244 185.315L277.645 186.549H269.865L262.085 197.655L255.502 231.59C229.967 231.59 184.642 230.356 181.291 230.356C177.94 230.356 183.454 223.569 183.454 223.569Z" fill="black"/>
<ellipse cx="161.541" cy="221.718" rx="6.58322" ry="6.78697" fill="black"/>
<path d="M184.882 221.718C184.882 235.008 174.432 245.781 161.541 245.781C148.651 245.781 138.201 235.008 138.201 221.718C138.201 208.429 148.651 197.655 161.541 197.655C174.432 197.655 184.882 208.429 184.882 221.718ZM146.68 221.718C146.68 230.18 153.334 237.039 161.541 237.039C169.749 237.039 176.402 230.18 176.402 221.718C176.402 213.257 169.749 206.397 161.541 206.397C153.334 206.397 146.68 213.257 146.68 221.718Z" fill="black"/>
<ellipse cx="274.054" cy="221.718" rx="6.58322" ry="6.78697" fill="black"/>
<path d="M297.395 221.718C297.395 235.008 286.945 245.781 274.054 245.781C261.164 245.781 250.714 235.008 250.714 221.718C250.714 208.429 261.164 197.655 274.054 197.655C286.945 197.655 297.395 208.429 297.395 221.718ZM259.194 221.718C259.194 230.18 265.847 237.039 274.054 237.039C282.262 237.039 288.915 230.18 288.915 221.718C288.915 213.257 282.262 206.397 274.054 206.397C265.847 206.397 259.194 213.257 259.194 221.718Z" fill="black"/>
<rect width="52.3161" height="53.143" rx="5" transform="matrix(0.989909 0.141706 -0.13348 0.991051 137.881 110.032)" fill="#06C167"/>
<rect width="52.3083" height="5.80035" transform="matrix(0.989987 0.141156 -0.13296 0.991121 136.574 119.743)" fill="#252525"/>
<path d="M218.396 116.829L226.176 122.382C230.007 119.914 230.565 118.063 230.366 117.446L233.358 118.68C233.957 118.474 236.119 117.939 236.119 117.446C236.119 116.829 236.119 117.446 236.718 116.829C237.316 116.212 238.146 114.361 238.146 113.744C238.146 113.127 240.54 111.893 239.941 111.276C239.463 110.782 238.944 109.836 238.744 109.425V105.106C238.944 103.461 237.667 99.9231 230.964 98.9359C224.261 97.9487 221.788 108.397 221.389 113.744L218.396 116.829Z" fill="#F0B686"/>
<path d="M217.2 103.872C216.242 108.314 218.396 112.304 219.593 113.744L225.347 114.361L226.544 109.425C228.459 109.919 230.933 118.269 231.332 117.446C231.332 115.595 228.938 108.191 233.358 108.808C235.73 109.139 234.555 105.723 235.154 105.723L241.737 106.34C240.54 96.4681 233.99 94.0001 228.57 94C223.184 93.9999 218.396 98.319 217.2 103.872Z" fill="#06C167"/>
<path d="M233.957 106.34L229.767 102.021L236.603 94.387C236.792 94.1757 237.119 94.1639 237.322 94.361L246.046 102.792C246.285 103.024 246.236 103.42 245.947 103.586L241.138 106.34C239.343 106.134 235.632 105.723 235.154 105.723C234.675 105.723 234.156 106.134 233.957 106.34Z" fill="url(#paint0_linear_1_136)"/>
<path d="M224.381 206.91V211.229V213.08L226.775 215.548C227.254 216.042 230.565 215.343 232.161 214.931L233.358 212.463V208.144C231.922 207.651 226.775 207.116 224.381 206.91Z" fill="#F0B686"/>
<path d="M223.703 211.648C224.66 210.661 224.9 211.648 224.9 212.265C228.251 216.708 232.68 214.528 234.475 212.882C236.67 214.322 241.896 217.818 245.248 220.286C247.642 223.248 245.846 223.988 244.649 223.988L223.104 218.435C222.905 216.584 222.745 212.635 223.703 211.648Z" fill="white"/>
<path d="M224.381 206.91C226.775 211.353 231.762 209.584 233.957 208.144C238.744 195.187 238.744 185.316 239.343 180.997C239.822 177.541 236.75 175.444 235.154 174.827L212.412 164.955L205.23 162.487L180.094 160.019L180.692 166.806C181.291 170.508 183.685 173.593 185.48 174.827C187.276 176.061 217.199 182.848 220.79 182.848C224.381 182.848 224.98 185.933 224.381 186.55C223.783 187.167 223.783 200.123 224.381 206.91Z" fill="#3B3939"/>
<mask id="mask0_1_136" style="mask-type:alpha" maskUnits="userSpaceOnUse" x="179" y="116" width="50" height="50">
<path d="M195.111 164.955C187.451 165.448 181.945 162.281 180.149 160.636C178.354 157.551 185.536 150.764 186.733 149.53C187.69 148.543 188.328 146.65 188.528 145.828C188.528 144.799 189.845 141.015 195.111 134.105C201.814 123.739 211.868 119.914 216.058 119.297V118.68L218.452 116.212C221.245 118.063 226.95 122.135 227.429 123.616C228.865 129.539 228.027 130.197 227.429 129.786L225.035 127.935C225.234 131.02 224.796 138.054 221.444 141.509C218.093 144.964 208.876 157.756 204.687 163.721C204.687 163.926 202.772 164.461 195.111 164.955Z" fill="#06C167"/>
</mask>
<g mask="url(#mask0_1_136)">
<path d="M217.199 119.297C216.72 120.778 222.785 128.552 225.578 131.637L227.972 129.786C225.977 127.935 218.636 120.778 217.199 119.297Z" fill="#4FAE59"/>
<path d="M218.396 135.339L222.586 139.041C222.985 139.246 223.902 139.781 224.381 140.275C224.98 140.892 224.381 140.892 223.783 141.509L220.192 145.211C219.713 145.704 213.21 154.466 210.018 158.785C209.419 160.636 208.103 164.461 207.624 164.955C207.025 165.572 206.427 166.189 204.631 166.806C202.836 167.423 194.457 166.806 193.26 166.806C192.303 166.806 186.478 165.572 183.685 164.955C181.69 163.104 177.7 159.278 177.7 158.785C177.7 158.168 177.7 158.168 178.298 156.934C178.897 155.7 180.094 152.615 180.094 151.998C180.094 151.381 184.283 146.445 184.882 145.211C185.36 144.224 188.672 139.041 190.268 136.573C189.67 135.339 190.148 132.5 196.851 131.02C203.554 129.539 212.412 132.048 216.002 133.488C216.8 132.459 218.516 130.526 218.995 131.02C219.474 131.513 218.795 134.105 218.396 135.339Z" fill="#08B260"/>
<path d="M207.025 156.934L207.624 154.466L226.176 160.019C225.977 160.636 225.219 161.87 223.783 161.87C221.389 161.87 211.614 158.579 207.025 156.934Z" fill="#08B260"/>
</g>
<rect width="29.1061" height="4.55864" transform="matrix(0.541261 0.840854 -0.825325 0.564658 260.38 195.404)" fill="#707070"/>
<rect width="31.2303" height="4.55864" transform="matrix(-0.541261 0.840854 0.825325 0.564658 176.418 193.401)" fill="#707070"/>
<path d="M233.957 159.402C231.563 159.895 227.772 158.785 226.177 158.168C225.977 157.139 225.937 155.083 227.374 155.083C228.81 155.083 230.366 154.671 230.964 154.466C231.563 154.26 233.837 153.849 238.146 153.849C243.532 153.849 242.335 158.785 240.54 160.019C238.745 161.253 236.949 160.019 237.548 159.402C238.146 158.785 239.343 156.934 236.949 155.7C234.555 154.466 234.555 158.168 233.957 159.402Z" fill="#F0B686"/>
<path d="M205.828 155.083C200.442 153.849 199.844 149.53 201.041 148.913C201.998 148.419 203.435 142.948 204.033 140.275C204.831 140.48 207.624 141.385 212.412 143.36C210.975 147.802 212.611 148.913 213.608 148.913L228.84 154.348C229.013 154.41 229.09 154.611 229.003 154.773L226.287 159.814C226.222 159.934 226.088 159.997 225.955 159.964C220.869 158.706 210.075 156.056 205.828 155.083Z" fill="#58BC6B"/>
<path d="M152.415 230C158.415 236 163.415 235.5 169.415 232" stroke="black" stroke-width="0.5"/>
<path d="M153.918 218C152.781 220.119 152.66 222.203 153.782 224" stroke="black" stroke-width="0.5"/>
<path d="M265.439 224C267.747 229.418 269.988 231.388 277.439 231" stroke="black" stroke-width="0.5"/>
<path d="M277 214.037C280.442 214.942 281.675 216.126 282 220.037" stroke="black" stroke-width="0.5"/>
<path d="M149.549 151.586L150.959 140.833L155.208 141.425C156 141.536 156.695 141.776 157.292 142.147C157.893 142.519 158.344 143.003 158.644 143.6C158.945 144.193 159.044 144.878 158.942 145.656C158.849 146.365 158.613 146.953 158.234 147.42C157.856 147.882 157.361 148.21 156.751 148.402C156.141 148.595 155.442 148.636 154.655 148.527L152.924 148.285L152.438 151.989L149.549 151.586ZM153.177 146.125L154.848 146.358C155.215 146.409 155.539 146.305 155.82 146.046C156.101 145.788 156.264 145.485 156.309 145.138C156.358 144.766 156.266 144.43 156.033 144.13C155.806 143.826 155.531 143.651 155.209 143.606L153.538 143.373L153.177 146.125ZM159.604 153.139C159.301 153.097 158.959 153.034 158.577 152.95C158.194 152.872 157.894 152.795 157.677 152.719L158.018 150.116C158.15 150.15 158.301 150.189 158.472 150.232C158.643 150.272 158.806 150.302 158.959 150.323C159.474 150.395 159.833 150.311 160.036 150.072C160.239 149.833 160.377 149.435 160.449 148.88L161.316 142.277L164.212 142.68L163.249 150.028C163.145 150.821 162.974 151.468 162.737 151.97C162.5 152.472 162.134 152.823 161.639 153.021C161.148 153.221 160.47 153.26 159.604 153.139Z" fill="white"/>
<rect x="307" y="49" width="16" height="2" fill="#E5E4E4"/>
<rect x="307" y="56" width="16" height="2" fill="#E5E4E4"/>
<rect x="307" y="63" width="16" height="2" fill="#E5E4E4"/>
<rect x="307" y="70" width="16" height="2" fill="#E5E4E4"/>
<rect x="307" y="77" width="16" height="2" fill="#E5E4E4"/>
<rect x="307" y="84" width="16" height="2" fill="#E5E4E4"/>
<rect x="307" y="91" width="16" height="2" fill="#E5E4E4"/>
<rect x="307" y="98" width="16" height="2" fill="#E5E4E4"/>
<rect x="307" y="105" width="16" height="2" fill="#E5E4E4"/>
<rect x="307" y="112" width="16" height="2" fill="#E5E4E4"/>
<rect x="307" y="119" width="16" height="2" fill="#E5E4E4"/>
<rect x="307" y="126" width="16" height="2" fill="#E5E4E4"/>
<rect x="307" y="133" width="16" height="2" fill="#E5E4E4"/>
<rect x="307" y="140" width="16" height="2" fill="#E5E4E4"/>
<rect x="63" y="113" width="3" height="4" rx="1" fill="#E5E4E4"/>
<rect x="63" y="113" width="3" height="4" rx="1" fill="#E5E4E4"/>
<rect x="63" y="113" width="3" height="4" rx="1" fill="#E5E4E4"/>
<rect x="63" y="121" width="3" height="4" rx="1" fill="#E5E4E4"/>
<rect x="63" y="121" width="3" height="4" rx="1" fill="#E5E4E4"/>
<rect x="63" y="121" width="3" height="4" rx="1" fill="#E5E4E4"/>
<rect x="63" y="129" width="3" height="4" rx="1" fill="#E5E4E4"/>
<rect x="63" y="129" width="3" height="4" rx="1" fill="#E5E4E4"/>
<rect x="63" y="129" width="3" height="4" rx="1" fill="#E5E4E4"/>
<rect x="63" y="137" width="3" height="4" rx="1" fill="#E5E4E4"/>
<rect x="63" y="137" width="3" height="4" rx="1" fill="#E5E4E4"/>
<rect x="63" y="137" width="3" height="4" rx="1" fill="#E5E4E4"/>
<rect x="69" y="121" width="3" height="4" rx="1" fill="#E5E4E4"/>
<rect x="69" y="121" width="3" height="4" rx="1" fill="#E5E4E4"/>
<rect x="69" y="121" width="3" height="4" rx="1" fill="#E5E4E4"/>
<rect x="75" y="121" width="3" height="4" rx="1" fill="#E5E4E4"/>
<rect x="75" y="121" width="3" height="4" rx="1" fill="#E5E4E4"/>
<rect x="75" y="121" width="3" height="4" rx="1" fill="#E5E4E4"/>
<rect x="81" y="121" width="3" height="4" rx="1" fill="#E5E4E4"/>
<rect x="81" y="121" width="3" height="4" rx="1" fill="#E5E4E4"/>
<rect x="81" y="121" width="3" height="4" rx="1" fill="#E5E4E4"/>
<rect x="69" y="129" width="3" height="4" rx="1" fill="#E5E4E4"/>
<rect x="69" y="129" width="3" height="4" rx="1" fill="#E5E4E4"/>
<rect x="69" y="129" width="3" height="4" rx="1" fill="#E5E4E4"/>
<rect x="75" y="129" width="3" height="4" rx="1" fill="#E5E4E4"/>
<rect x="75" y="129" width="3" height="4" rx="1" fill="#E5E4E4"/>
<rect x="75" y="129" width="3" height="4" rx="1" fill="#E5E4E4"/>
<rect x="81" y="129" width="3" height="4" rx="1" fill="#E5E4E4"/>
<rect x="81" y="129" width="3" height="4" rx="1" fill="#E5E4E4"/>
<rect x="81" y="129" width="3" height="4" rx="1" fill="#E5E4E4"/>
<rect x="69" y="137" width="3" height="4" rx="1" fill="#E5E4E4"/>
<rect x="69" y="137" width="3" height="4" rx="1" fill="#E5E4E4"/>
<rect x="69" y="137" width="3" height="4" rx="1" fill="#E5E4E4"/>
<rect x="75" y="137" width="3" height="4" rx="1" fill="#E5E4E4"/>
<rect x="75" y="137" width="3" height="4" rx="1" fill="#E5E4E4"/>
<rect x="75" y="137" width="3" height="4" rx="1" fill="#E5E4E4"/>
<rect x="81" y="137" width="3" height="4" rx="1" fill="#E5E4E4"/>
<rect x="81" y="137" width="3" height="4" rx="1" fill="#E5E4E4"/>
<rect x="81" y="137" width="3" height="4" rx="1" fill="#E5E4E4"/>
<rect x="69" y="113" width="3" height="4" rx="1" fill="#E5E4E4"/>
<rect x="69" y="113" width="3" height="4" rx="1" fill="#E5E4E4"/>
<rect x="69" y="113" width="3" height="4" rx="1" fill="#E5E4E4"/>
<rect x="75" y="113" width="3" height="4" rx="1" fill="#E5E4E4"/>
<rect x="75" y="113" width="3" height="4" rx="1" fill="#E5E4E4"/>
<rect x="75" y="113" width="3" height="4" rx="1" fill="#E5E4E4"/>
<rect x="81" y="113" width="3" height="4" rx="1" fill="#E5E4E4"/>
<rect x="81" y="113" width="3" height="4" rx="1" fill="#E5E4E4"/>
<rect x="81" y="113" width="3" height="4" rx="1" fill="#E5E4E4"/>
<defs>
<linearGradient id="paint0_linear_1_136" x1="239.941" y1="95.234" x2="229.477" y2="104.788" gradientUnits="userSpaceOnUse">
<stop stop-color="#6D89DE"/>
<stop offset="1" stop-color="white" stop-opacity="0"/>
</linearGradient>
</defs>
</svg>
